<?xml version="1.0" encoding="UTF-8"?>
<svg width="215px" height="80px" viewBox="0 0 215 80" version="1.1" xmlns="http://www.w3.org/2000/svg" xmlns:xlink="http://www.w3.org/1999/xlink">
    <!-- Generator: Sketch 42 (36781) - http://www.bohemiancoding.com/sketch -->
    <title>Logo_Left</title>
    <desc>Created with Sketch.</desc>
    <defs></defs>
    <g id="Landing-Page" stroke="none" stroke-width="1" fill="none" fill-rule="evenodd">
        <g id="Desktop" transform="translate(-73.000000, -653.000000)">
            <g id="DS_Logo-Design" transform="translate(73.000000, -31.000000)">
                <g id="Logo_Left" transform="translate(0.000000, 684.000000)">
                    <path d="M40.071,0.75 C61.86,0.75 79.523,18.414 79.523,40.202 C79.523,61.991 61.86,79.654 40.071,79.654 C18.283,79.654 0.62,61.991 0.62,40.202 C0.62,18.414 18.283,0.75 40.071,0.75 Z M40.071,3.824 C60.163,3.824 76.45,20.111 76.45,40.202 C76.45,60.294 60.163,76.581 40.071,76.581 C19.98,76.581 3.693,60.294 3.693,40.202 C3.693,20.111 19.98,3.824 40.071,3.824 L40.071,3.824 Z" id="Fill-63" fill="#DC3D2A"></path>
                    <path d="M40.248,16.598 C40.248,16.598 38.377,14.822 38.566,10.843 C38.756,6.865 36.656,9.309 36.04,10.185 C35.738,10.615 34.838,11.738 34.589,12.846 C34.311,14.086 34.363,15.86 34.707,17.143 C35.357,19.572 33.878,16.053 33.167,16.053 C32.457,16.053 31.217,16.133 31.723,19.89 C32.228,23.646 35.37,28.51 36.601,29.694 C37.832,30.878 39.017,31.186 39.585,29.86 C40.153,28.534 40.153,28.818 40.58,29.457 C41.006,30.097 44.582,24.318 44.416,22.092 C44.25,19.866 43.042,14.585 42.427,14.822 C41.811,15.059 41.645,17.829 40.248,16.598 Z M19.574,38.693 C19.574,38.693 18.437,46.413 21.042,51.718 C23.647,57.023 24.168,58.207 24.784,59.391 C25.4,60.575 26.821,65.169 22.511,63.038 C18.201,60.906 10.812,53.944 9.438,50.96 C8.065,47.977 8.586,42.293 8.586,42.293 C8.586,42.293 9.374,39.335 10.987,42.129 C12.601,44.924 15.404,44.124 14.838,42.009 C14.496,40.732 12.882,38.281 12.029,35.532 C11.295,33.165 11.233,30.514 11.759,28.936 C12.896,25.526 14.364,23.489 15.075,22.732 C15.785,21.974 16.353,20.695 16.306,24.437 C16.259,28.178 18.2,30.736 18.816,31.541 C19.432,32.346 20.521,33.531 19.574,38.693 Z M25.116,33.578 C25.116,33.578 28.905,36.514 28.81,39.356 C28.715,42.198 30.468,43.098 30.468,43.098 C30.468,43.098 32.647,43.761 33.594,43.761 C34.541,43.761 35.062,44.613 34.541,47.598 C34.02,50.581 33.073,54.228 32.883,55.081 C32.694,55.933 32.599,57.165 31.083,53.944 C29.568,50.723 27.058,49.397 25.637,47.503 C24.216,45.608 22.937,43.193 23.079,38.077 C23.221,32.962 23.126,31.305 25.116,33.578 Z M42.214,35.425 C42.214,35.425 39.704,35.472 38.709,35.425 C37.714,35.378 36.388,34.857 34.778,32.583 C33.167,30.31 27.815,21.69 27.579,18.422 C27.342,15.154 28.052,11.364 25.542,14.159 C23.032,16.953 21.374,21.074 21.326,22.116 C21.279,23.158 20.521,25.905 24.121,30.641 C27.721,35.378 34.541,41.345 35.393,43.193 C36.246,45.04 36.909,47.645 35.488,52.002 C34.067,56.36 33.499,57.165 33.499,57.165 C33.499,57.165 32.362,58.965 33.831,60.812 C35.299,62.659 34.967,62.422 34.967,63.511 C34.967,64.601 35.299,66.543 37.667,66.969 C40.035,67.395 41.314,67.111 41.314,67.111 L42.214,35.425 Z M28.952,62.28 C28.952,62.28 30.515,60.954 31.51,60.954 C32.505,60.954 34.399,62.469 31.463,64.222 C28.526,65.974 29.994,67.49 27.2,68.722 C24.405,69.953 22.179,70.048 23.363,69.243 C24.547,68.437 26.797,66.246 27.2,64.743 C27.603,63.24 28.952,62.28 28.952,62.28 L28.952,62.28 Z" id="Fill-64" fill="#DC3D2A"></path>
                    <path d="M39.872,16.598 C39.872,16.598 41.743,14.822 41.554,10.843 C41.364,6.865 43.464,9.309 44.08,10.185 C44.382,10.615 45.282,11.738 45.531,12.846 C45.809,14.086 45.757,15.86 45.414,17.143 C44.763,19.572 46.242,16.053 46.953,16.053 C47.663,16.053 48.903,16.133 48.398,19.89 C47.892,23.646 44.751,28.51 43.519,29.694 C42.288,30.878 41.104,31.186 40.535,29.86 C39.967,28.534 39.967,28.818 39.54,29.457 C39.114,30.097 35.538,24.318 35.704,22.092 C35.87,19.866 37.078,14.585 37.693,14.822 C38.309,15.059 38.475,17.829 39.872,16.598 Z M60.546,38.693 C60.546,38.693 61.683,46.413 59.078,51.718 C56.473,57.023 55.952,58.207 55.336,59.391 C54.72,60.575 53.299,65.169 57.609,63.038 C61.919,60.906 69.308,53.944 70.682,50.96 C72.055,47.977 71.534,42.293 71.534,42.293 C71.534,42.293 70.747,39.335 69.133,42.129 C67.519,44.924 64.716,44.124 65.282,42.009 C65.624,40.732 67.238,38.281 68.091,35.532 C68.825,33.165 68.887,30.514 68.361,28.936 C67.224,25.526 65.756,23.489 65.045,22.732 C64.335,21.974 63.767,20.695 63.814,24.437 C63.861,28.178 61.92,30.736 61.304,31.541 C60.688,32.346 59.599,33.531 60.546,38.693 Z M55.004,33.578 C55.004,33.578 51.215,36.514 51.31,39.356 C51.405,42.198 49.652,43.098 49.652,43.098 C49.652,43.098 47.474,43.761 46.526,43.761 C45.579,43.761 45.058,44.613 45.579,47.598 C46.1,50.581 47.047,54.228 47.237,55.081 C47.426,55.933 47.521,57.165 49.037,53.944 C50.552,50.723 53.063,49.397 54.483,47.503 C55.904,45.608 57.183,43.193 57.041,38.077 C56.899,32.962 56.994,31.305 55.004,33.578 Z M37.906,35.425 C37.906,35.425 40.416,35.472 41.411,35.425 C42.406,35.378 43.732,34.857 45.342,32.583 C46.953,30.31 52.305,21.69 52.542,18.422 C52.778,15.154 52.068,11.364 54.578,14.159 C57.088,16.953 58.746,21.074 58.793,22.116 C58.841,23.158 59.599,25.905 55.999,30.641 C52.4,35.378 45.579,41.345 44.726,43.193 C43.874,45.04 43.211,47.645 44.632,52.002 C46.053,56.36 46.621,57.165 46.621,57.165 C46.621,57.165 47.758,58.964 46.289,60.812 C44.821,62.659 45.153,62.422 45.153,63.511 C45.153,64.601 44.821,66.543 42.453,66.969 C40.085,67.395 38.806,67.111 38.806,67.111 L37.906,35.425 Z M51.168,62.28 C51.168,62.28 49.605,60.954 48.61,60.954 C47.616,60.954 45.721,62.469 48.658,64.222 C51.594,65.974 50.126,67.49 52.92,68.722 C55.715,69.953 57.941,70.048 56.757,69.243 C55.573,68.437 53.323,66.246 52.92,64.743 C52.517,63.24 51.168,62.28 51.168,62.28 L51.168,62.28 Z" id="Fill-65" fill="#DC3D2A"></path>
                    <path d="M34.483,67.325 C34.483,67.325 35.094,66.909 37.29,68 C39.485,69.092 40.889,68.533 41.73,68.379 C42.571,68.225 44.016,69.954 42.5,70.629 C40.984,71.304 38.841,71.517 37.017,70.57 C35.194,69.622 33.516,68.032 34.483,67.325" id="Fill-66" fill="#DC3D2A"></path>
                    <path d="M45.386,67.325 C45.386,67.325 44.775,66.909 42.579,68 C40.384,69.092 38.98,68.533 38.139,68.379 C37.298,68.225 35.853,69.954 37.369,70.629 C38.885,71.304 41.028,71.517 42.852,70.57 C44.675,69.622 46.353,68.032 45.386,67.325" id="Fill-67" fill="#DC3D2A"></path>
                    <path d="M86.248,56.905 C86.248,56.004 87.074,55.493 88.051,55.493 C88.877,55.493 89.658,55.853 89.974,56.635 L90.605,56.274 C90.2,55.358 89.268,54.772 88.051,54.772 C86.518,54.772 85.497,55.718 85.497,56.905 C85.497,59.61 90.049,58.438 90.049,60.481 C90.049,61.428 89.163,61.893 88.111,61.893 C86.984,61.893 86.173,61.383 85.902,60.571 L85.256,60.947 C85.617,61.908 86.608,62.615 88.111,62.615 C89.719,62.615 90.801,61.713 90.801,60.481 C90.801,57.732 86.248,58.918 86.248,56.905 Z M108.5,55.673 L108.5,54.937 L106.261,54.937 L106.261,52.833 L105.495,53.059 L105.495,54.937 L103.842,54.937 L103.842,55.673 L105.495,55.673 L105.495,60.556 C105.495,62.269 106.532,62.75 108.5,62.45 L108.5,61.774 C106.967,61.908 106.261,61.878 106.261,60.556 L106.261,55.673 L108.5,55.673 Z M127.747,54.937 L127.747,58.903 C127.747,60.932 126.59,61.893 125.118,61.893 C123.705,61.893 122.909,60.992 122.909,59.61 L122.909,54.937 L122.143,54.937 L122.143,59.61 C122.143,61.428 123.27,62.615 125.058,62.615 C126.215,62.615 127.176,62.134 127.747,61.022 L127.747,62.45 L128.498,62.45 L128.498,54.937 L127.747,54.937 Z M149.473,51.932 L149.473,56.68 C148.857,55.523 147.7,54.772 146.243,54.772 C144.094,54.772 142.351,56.47 142.351,58.693 C142.351,60.917 144.094,62.615 146.243,62.615 C147.7,62.615 148.857,61.863 149.473,60.707 L149.473,62.45 L150.225,62.45 L150.225,51.932 L149.473,51.932 Z M146.288,61.893 C144.5,61.893 143.103,60.481 143.103,58.693 C143.103,56.905 144.5,55.493 146.288,55.493 C148.076,55.493 149.473,56.905 149.473,58.693 C149.473,60.481 148.076,61.893 146.288,61.893 Z M164.949,53.119 C165.28,53.119 165.55,52.848 165.55,52.518 C165.55,52.202 165.28,51.932 164.949,51.932 C164.619,51.932 164.348,52.202 164.348,52.518 C164.348,52.848 164.619,53.119 164.949,53.119 Z M164.574,62.45 L165.325,62.45 L165.325,54.937 L164.574,54.937 L164.574,62.45 Z M183.114,62.615 C185.293,62.615 187.051,60.917 187.051,58.693 C187.051,56.47 185.293,54.772 183.114,54.772 C180.921,54.772 179.163,56.47 179.163,58.693 C179.163,60.917 180.921,62.615 183.114,62.615 Z M183.114,61.893 C181.326,61.893 179.929,60.481 179.929,58.693 C179.929,56.905 181.326,55.493 183.114,55.493 C184.903,55.493 186.285,56.905 186.285,58.693 C186.285,60.481 184.903,61.893 183.114,61.893 L183.114,61.893 Z" id="Fill-68" fill="#1A1918"></path>
                    <path d="M103.345,46.326 L103.345,34.697 C103.345,33.582 103.407,32.658 103.527,31.915 C103.647,31.178 103.901,30.485 104.278,29.849 C104.661,29.196 105.127,28.641 105.678,28.174 C106.234,27.712 106.851,27.361 107.527,27.116 C108.207,26.877 108.94,26.756 109.722,26.756 C110.864,26.756 111.917,27.036 112.886,27.601 C113.859,28.161 114.628,28.921 115.192,29.876 C115.756,30.831 116.037,31.871 116.037,32.995 C116.037,33.951 115.832,34.862 115.428,35.719 C115.023,36.577 114.446,37.288 113.704,37.861 C112.957,38.43 112.099,38.79 111.131,38.937 L115.716,44.749 L113.69,46.326 L107.18,38.377 L106.705,35.235 C107.056,35.71 107.522,36.084 108.1,36.355 C108.682,36.621 109.166,36.759 109.558,36.759 C110.793,36.759 111.748,36.413 112.419,35.728 C113.09,35.039 113.424,34.111 113.424,32.942 C113.424,32.258 113.259,31.627 112.926,31.049 C112.593,30.467 112.139,30.014 111.557,29.68 C110.98,29.347 110.349,29.182 109.66,29.182 C108.522,29.182 107.616,29.569 106.931,30.338 C106.247,31.107 105.905,32.173 105.905,33.529 L105.905,46.326 L103.345,46.326 Z M128.514,46.326 L128.514,39.368 L120.302,39.368 L120.302,46.326 L117.743,46.326 L117.743,34.275 C117.743,31.96 118.356,30.129 119.578,28.792 C120.805,27.454 122.413,26.783 124.408,26.783 C125.71,26.783 126.866,27.081 127.879,27.676 C128.888,28.276 129.674,29.143 130.234,30.28 C130.794,31.418 131.074,32.747 131.074,34.275 L131.074,46.326 L128.514,46.326 Z M124.413,29.156 C123.093,29.156 122.075,29.596 121.369,30.471 C120.658,31.347 120.302,32.635 120.302,34.333 L120.302,36.941 L128.514,36.941 L128.514,34.333 C128.514,32.635 128.159,31.347 127.448,30.471 C126.741,29.596 125.728,29.156 124.413,29.156 Z M134.247,46.326 L134.247,33.502 C134.247,32.138 134.5,30.947 135.007,29.929 C135.518,28.907 136.224,28.129 137.131,27.592 C138.037,27.054 139.073,26.783 140.241,26.783 C142.161,26.783 143.725,27.565 144.934,29.129 C145.307,28.632 145.742,28.205 146.24,27.849 C146.738,27.494 147.271,27.227 147.845,27.05 C148.418,26.872 149.013,26.783 149.626,26.783 C150.804,26.783 151.844,27.054 152.755,27.592 C153.661,28.129 154.368,28.903 154.87,29.916 C155.377,30.929 155.63,32.124 155.63,33.502 L155.63,46.326 L153.097,46.326 L153.097,33.506 C153.097,32.102 152.795,31.031 152.19,30.294 C151.591,29.552 150.733,29.182 149.626,29.182 C148.533,29.182 147.689,29.552 147.089,30.294 C146.489,31.031 146.191,32.102 146.191,33.506 L146.191,46.326 L143.685,46.326 L143.685,33.506 C143.685,32.102 143.383,31.031 142.783,30.294 C142.183,29.552 141.334,29.182 140.241,29.182 C139.139,29.182 138.29,29.552 137.699,30.294 C137.104,31.031 136.806,32.102 136.806,33.506 L136.806,46.326 L134.247,46.326 Z M159.074,46.327 L161.607,46.327 L161.607,27.13 L159.074,27.13 L159.074,46.327 Z M165.202,46.326 L165.202,27.13 L167.708,27.13 L167.708,35.071 L174.96,27.13 L178.457,27.13 L171.712,34.431 C172.085,34.311 172.378,34.249 172.592,34.249 C173.107,34.249 173.654,34.364 174.227,34.595 C174.804,34.822 175.333,35.155 175.818,35.591 C176.306,36.026 176.702,36.564 177.009,37.203 C177.315,37.848 177.466,38.568 177.466,39.368 L177.466,46.326 L174.907,46.326 L174.907,39.634 C174.907,39.137 174.76,38.634 174.467,38.128 C174.173,37.617 173.743,37.199 173.165,36.875 C172.592,36.546 171.912,36.381 171.125,36.381 C170.072,36.381 169.237,36.653 168.628,37.19 C168.015,37.732 167.708,38.563 167.708,39.688 L167.708,46.326 L165.202,46.326 Z M181.786,36.697 C181.786,37.657 181.972,38.594 182.341,39.505 C182.714,40.421 183.23,41.234 183.887,41.945 C184.55,42.66 185.314,43.22 186.18,43.634 C187.047,44.043 187.962,44.247 188.927,44.247 C189.913,44.247 190.842,44.043 191.717,43.634 C192.593,43.22 193.353,42.66 194.001,41.949 C194.65,41.239 195.157,40.43 195.512,39.519 C195.872,38.612 196.05,37.67 196.05,36.697 C196.05,35.737 195.868,34.799 195.508,33.889 C195.148,32.978 194.641,32.164 193.988,31.458 C193.335,30.747 192.579,30.191 191.713,29.787 C190.851,29.383 189.922,29.182 188.927,29.182 C187.633,29.182 186.443,29.529 185.345,30.223 C184.252,30.916 183.385,31.845 182.745,33.004 C182.106,34.164 181.786,35.395 181.786,36.697 Z M179.173,36.724 C179.173,34.995 179.622,33.364 180.515,31.835 C181.408,30.307 182.608,29.089 184.11,28.178 C185.616,27.267 187.22,26.81 188.931,26.81 C190.26,26.81 191.517,27.067 192.699,27.587 C193.886,28.107 194.926,28.827 195.823,29.756 C196.716,30.68 197.414,31.747 197.916,32.942 C198.414,34.142 198.663,35.399 198.663,36.724 C198.663,38.048 198.414,39.31 197.916,40.51 C197.414,41.705 196.721,42.767 195.832,43.696 C194.943,44.62 193.899,45.349 192.708,45.878 C191.517,46.407 190.26,46.673 188.931,46.673 C187.638,46.673 186.398,46.415 185.212,45.9 C184.03,45.38 182.981,44.66 182.066,43.727 C181.155,42.798 180.444,41.727 179.933,40.527 C179.426,39.323 179.173,38.057 179.173,36.724 Z M203.68,46.326 L201.12,46.326 L201.12,34.249 C201.12,31.947 201.734,30.125 202.955,28.787 C204.182,27.45 205.79,26.783 207.786,26.783 C209.088,26.783 210.243,27.081 211.252,27.676 C212.261,28.272 213.047,29.134 213.607,30.267 C214.171,31.4 214.451,32.729 214.451,34.249 L214.451,46.326 L211.892,46.326 L211.892,34.382 C211.892,32.689 211.536,31.4 210.825,30.525 C210.119,29.649 209.106,29.209 207.79,29.209 C206.47,29.209 205.453,29.649 204.746,30.525 C204.035,31.4 203.68,32.689 203.68,34.382 L203.68,46.326 L203.68,46.326 Z" id="Fill-69" fill="#333433"></path>
                    <polygon id="Fill-70" fill="#333433" points="85.238 46.326 87.771 46.326 87.771 26.741 85.238 26.741"></polygon>
                    <path d="M92.013,44.192 L92.058,44.192 C93.044,44.192 93.973,43.988 94.849,43.579 C95.724,43.165 96.484,42.605 97.133,41.894 C97.781,41.184 98.288,40.375 98.644,39.464 C99.003,38.557 99.181,37.615 99.181,36.642 C99.181,35.682 98.999,34.744 98.639,33.834 C98.279,32.923 97.773,32.109 97.12,31.403 C96.466,30.692 95.711,30.136 94.844,29.732 C93.982,29.328 93.053,29.128 92.058,29.128 L92.013,29.128 L92.013,26.755 L92.063,26.755 C93.391,26.755 94.649,27.012 95.831,27.532 C97.017,28.052 98.057,28.772 98.955,29.701 C99.848,30.625 100.545,31.692 101.047,32.887 C101.545,34.087 101.794,35.344 101.794,36.669 C101.794,37.993 101.545,39.255 101.047,40.455 C100.545,41.65 99.852,42.712 98.963,43.641 C98.075,44.565 97.031,45.294 95.84,45.823 C94.649,46.351 93.391,46.618 92.063,46.618 L92.013,46.618 L92.013,44.192" id="Fill-71" fill="#333433"></path>
                    <polygon id="Fill-72" fill="#333433" points="85.238 29.129 92.206 29.129 92.206 26.741 85.238 26.741"></polygon>
                    <polygon id="Fill-73" fill="#333433" points="85.238 46.618 92.099 46.618 92.099 44.191 85.238 44.191"></polygon>
                </g>
            </g>
        </g>
    </g>
</svg>