<?xml version="1.0" encoding="UTF-8"?>
<svg width="215px" height="80px" viewBox="0 0 215 80" version="1.1" xmlns="http://www.w3.org/2000/svg" xmlns:xlink="http://www.w3.org/1999/xlink">
    <!-- Generator: Sketch 42 (36781) - http://www.bohemiancoding.com/sketch -->
    <title>Logo_Left_White</title>
    <desc>Created with Sketch.</desc>
    <defs></defs>
    <g id="Landing-Page" stroke="none" stroke-width="1" fill="none" fill-rule="evenodd">
        <g id="Desktop" transform="translate(-345.000000, -649.000000)" fill="#FFFFFF">
            <g id="DS_Logo-Design" transform="translate(73.000000, -31.000000)">
                <g id="Logo_Left_White" transform="translate(272.000000, 680.000000)">
                    <path d="M40.183,0.746 C61.971,0.746 79.634,18.409 79.634,40.198 C79.634,61.986 61.971,79.65 40.183,79.65 C18.394,79.65 0.731,61.986 0.731,40.198 C0.731,18.409 18.394,0.746 40.183,0.746 Z M40.183,3.82 C60.274,3.82 76.561,20.107 76.561,40.198 C76.561,60.289 60.274,76.576 40.183,76.576 C20.092,76.576 3.804,60.289 3.804,40.198 C3.804,20.107 20.092,3.82 40.183,3.82 L40.183,3.82 Z" id="Fill-74"></path>
                    <path d="M40.36,16.594 C40.36,16.594 38.489,14.818 38.678,10.839 C38.867,6.861 36.767,9.305 36.151,10.181 C35.85,10.611 34.95,11.733 34.701,12.842 C34.422,14.082 34.475,15.856 34.818,17.138 C35.469,19.568 33.989,16.049 33.279,16.049 C32.568,16.049 31.328,16.129 31.834,19.885 C32.34,23.642 35.481,28.506 36.712,29.69 C37.944,30.874 39.128,31.182 39.697,29.855 C40.265,28.529 40.265,28.814 40.691,29.453 C41.117,30.092 44.693,24.314 44.528,22.088 C44.362,19.862 43.154,14.581 42.538,14.818 C41.923,15.054 41.757,17.825 40.36,16.594 Z M19.686,38.689 C19.686,38.689 18.549,46.409 21.154,51.714 C23.759,57.018 24.28,58.202 24.896,59.387 C25.511,60.571 26.932,65.165 22.622,63.034 C18.312,60.902 10.923,53.94 9.55,50.956 C8.176,47.972 8.697,42.289 8.697,42.289 C8.697,42.289 9.485,39.331 11.099,42.125 C12.712,44.92 15.516,44.12 14.949,42.004 C14.607,40.728 12.994,38.277 12.141,35.528 C11.406,33.161 11.345,30.51 11.871,28.932 C13.007,25.522 14.476,23.485 15.186,22.727 C15.897,21.97 16.465,20.691 16.418,24.432 C16.37,28.174 18.312,30.732 18.928,31.537 C19.544,32.342 20.633,33.526 19.686,38.689 Z M25.227,33.574 C25.227,33.574 29.016,36.51 28.921,39.352 C28.827,42.194 30.579,43.094 30.579,43.094 C30.579,43.094 32.758,43.757 33.705,43.757 C34.653,43.757 35.174,44.609 34.653,47.593 C34.132,50.577 33.184,54.224 32.995,55.077 C32.805,55.929 32.711,57.161 31.195,53.94 C29.679,50.719 27.169,49.393 25.748,47.499 C24.327,45.604 23.049,43.189 23.191,38.073 C23.333,32.958 23.238,31.3 25.227,33.574 Z M42.325,35.421 C42.325,35.421 39.815,35.468 38.821,35.421 C37.826,35.373 36.5,34.852 34.889,32.579 C33.279,30.306 27.927,21.685 27.69,18.417 C27.453,15.149 28.164,11.36 25.653,14.155 C23.143,16.949 21.485,21.07 21.438,22.112 C21.391,23.154 20.633,25.901 24.233,30.637 C27.832,35.373 34.653,41.341 35.505,43.189 C36.358,45.036 37.021,47.641 35.6,51.998 C34.179,56.355 33.611,57.16 33.611,57.16 C33.611,57.16 32.474,58.96 33.942,60.808 C35.41,62.655 35.079,62.418 35.079,63.507 C35.079,64.597 35.41,66.539 37.779,66.965 C40.147,67.391 41.425,67.107 41.425,67.107 L42.325,35.421 Z M29.064,62.276 C29.064,62.276 30.627,60.95 31.621,60.95 C32.616,60.95 34.511,62.465 31.574,64.218 C28.637,65.97 30.106,67.486 27.311,68.717 C24.517,69.949 22.291,70.044 23.475,69.238 C24.659,68.433 26.909,66.242 27.311,64.739 C27.714,63.236 29.064,62.276 29.064,62.276 L29.064,62.276 Z" id="Fill-75"></path>
                    <path d="M39.984,16.594 C39.984,16.594 41.855,14.818 41.665,10.839 C41.476,6.861 43.576,9.305 44.192,10.181 C44.493,10.611 45.393,11.733 45.642,12.842 C45.921,14.082 45.869,15.856 45.525,17.138 C44.874,19.568 46.354,16.049 47.065,16.049 C47.775,16.049 49.015,16.129 48.509,19.885 C48.003,23.642 44.862,28.506 43.631,29.69 C42.399,30.874 41.215,31.182 40.647,29.855 C40.078,28.529 40.078,28.814 39.652,29.453 C39.226,30.092 35.65,24.314 35.816,22.088 C35.981,19.862 37.189,14.581 37.805,14.818 C38.421,15.054 38.586,17.825 39.984,16.594 Z M60.658,38.689 C60.658,38.689 61.794,46.409 59.189,51.714 C56.584,57.018 56.063,58.202 55.448,59.387 C54.832,60.571 53.411,65.165 57.721,63.034 C62.031,60.902 69.42,53.94 70.793,50.956 C72.167,47.972 71.646,42.289 71.646,42.289 C71.646,42.289 70.858,39.331 69.245,42.125 C67.631,44.92 64.827,44.12 65.394,42.004 C65.736,40.728 67.35,38.277 68.203,35.528 C68.937,33.161 68.999,30.51 68.472,28.932 C67.336,25.522 65.867,23.485 65.157,22.727 C64.446,21.97 63.878,20.691 63.926,24.432 C63.973,28.174 62.031,30.732 61.415,31.537 C60.8,32.342 59.71,33.526 60.658,38.689 Z M55.116,33.574 C55.116,33.574 51.327,36.51 51.421,39.352 C51.516,42.194 49.764,43.094 49.764,43.094 C49.764,43.094 47.585,43.757 46.638,43.757 C45.691,43.757 45.17,44.609 45.691,47.593 C46.212,50.577 47.159,54.224 47.348,55.077 C47.538,55.929 47.633,57.161 49.148,53.94 C50.664,50.719 53.174,49.393 54.595,47.499 C56.016,45.604 57.295,43.189 57.153,38.073 C57.011,32.958 57.105,31.3 55.116,33.574 Z M38.018,35.421 C38.018,35.421 40.528,35.468 41.523,35.421 C42.517,35.373 43.843,34.852 45.454,32.579 C47.064,30.306 52.416,21.685 52.653,18.417 C52.89,15.149 52.179,11.36 54.69,14.155 C57.2,16.949 58.858,21.07 58.905,22.112 C58.952,23.154 59.71,25.901 56.111,30.637 C52.511,35.373 45.691,41.341 44.838,43.189 C43.986,45.036 43.322,47.641 44.743,51.998 C46.164,56.355 46.733,57.16 46.733,57.16 C46.733,57.16 47.869,58.96 46.401,60.808 C44.933,62.655 45.264,62.418 45.264,63.507 C45.264,64.597 44.933,66.539 42.565,66.965 C40.197,67.391 38.918,67.107 38.918,67.107 L38.018,35.421 Z M51.279,62.276 C51.279,62.276 49.716,60.95 48.722,60.95 C47.727,60.95 45.832,62.465 48.769,64.218 C51.706,65.97 50.237,67.486 53.032,68.717 C55.826,69.949 58.052,70.044 56.868,69.238 C55.684,68.433 53.435,66.242 53.032,64.739 C52.629,63.236 51.279,62.276 51.279,62.276 L51.279,62.276 Z" id="Fill-76"></path>
                    <path d="M34.595,67.321 C34.595,67.321 35.206,66.904 37.401,67.996 C39.597,69.088 41.001,68.529 41.842,68.375 C42.682,68.221 44.127,69.95 42.611,70.625 C41.096,71.3 38.952,71.513 37.129,70.566 C35.305,69.618 33.628,68.027 34.595,67.321" id="Fill-77"></path>
                    <path d="M45.497,67.321 C45.497,67.321 44.886,66.904 42.691,67.996 C40.495,69.088 39.091,68.529 38.25,68.375 C37.41,68.221 35.965,69.95 37.481,70.625 C38.996,71.3 41.14,71.513 42.963,70.566 C44.787,69.618 46.465,68.027 45.497,67.321" id="Fill-78"></path>
                    <path d="M86.359,56.901 C86.359,56 87.186,55.489 88.162,55.489 C88.989,55.489 89.77,55.849 90.085,56.631 L90.717,56.27 C90.311,55.354 89.379,54.767 88.162,54.767 C86.63,54.767 85.608,55.714 85.608,56.901 C85.608,59.606 90.161,58.434 90.161,60.477 C90.161,61.423 89.274,61.889 88.223,61.889 C87.095,61.889 86.284,61.378 86.014,60.567 L85.368,60.943 C85.728,61.904 86.72,62.611 88.223,62.611 C89.83,62.611 90.912,61.709 90.912,60.477 C90.912,57.727 86.359,58.914 86.359,56.901 Z M108.612,55.669 L108.612,54.933 L106.373,54.933 L106.373,52.829 L105.607,53.055 L105.607,54.933 L103.954,54.933 L103.954,55.669 L105.607,55.669 L105.607,60.552 C105.607,62.265 106.643,62.746 108.612,62.445 L108.612,61.769 C107.079,61.904 106.373,61.874 106.373,60.552 L106.373,55.669 L108.612,55.669 Z M127.859,54.933 L127.859,58.899 C127.859,60.928 126.702,61.889 125.229,61.889 C123.817,61.889 123.021,60.988 123.021,59.606 L123.021,54.933 L122.254,54.933 L122.254,59.606 C122.254,61.423 123.381,62.611 125.169,62.611 C126.326,62.611 127.288,62.13 127.859,61.018 L127.859,62.445 L128.61,62.445 L128.61,54.933 L127.859,54.933 Z M149.585,51.928 L149.585,56.676 C148.969,55.519 147.812,54.767 146.354,54.767 C144.206,54.767 142.463,56.465 142.463,58.689 C142.463,60.913 144.206,62.611 146.354,62.611 C147.812,62.611 148.969,61.859 149.585,60.702 L149.585,62.445 L150.336,62.445 L150.336,51.928 L149.585,51.928 Z M146.4,61.889 C144.612,61.889 143.214,60.477 143.214,58.689 C143.214,56.901 144.612,55.489 146.4,55.489 C148.187,55.489 149.585,56.901 149.585,58.689 C149.585,60.477 148.187,61.889 146.4,61.889 Z M165.061,53.115 C165.391,53.115 165.662,52.844 165.662,52.514 C165.662,52.198 165.391,51.928 165.061,51.928 C164.73,51.928 164.46,52.198 164.46,52.514 C164.46,52.844 164.73,53.115 165.061,53.115 Z M164.685,62.445 L165.436,62.445 L165.436,54.932 L164.685,54.932 L164.685,62.445 Z M183.226,62.611 C185.405,62.611 187.162,60.913 187.162,58.689 C187.162,56.465 185.405,54.767 183.226,54.767 C181.032,54.767 179.274,56.465 179.274,58.689 C179.274,60.913 181.032,62.611 183.226,62.611 Z M183.226,61.889 C181.438,61.889 180.041,60.477 180.041,58.689 C180.041,56.901 181.438,55.489 183.226,55.489 C185.014,55.489 186.396,56.901 186.396,58.689 C186.396,60.477 185.014,61.889 183.226,61.889 L183.226,61.889 Z" id="Fill-79"></path>
                    <path d="M103.457,46.322 L103.457,34.693 C103.457,33.578 103.519,32.653 103.639,31.911 C103.759,31.174 104.012,30.481 104.39,29.845 C104.772,29.192 105.239,28.636 105.79,28.17 C106.345,27.708 106.963,27.356 107.638,27.112 C108.318,26.872 109.051,26.752 109.834,26.752 C110.975,26.752 112.029,27.032 112.997,27.597 C113.97,28.156 114.739,28.916 115.304,29.872 C115.868,30.827 116.148,31.867 116.148,32.991 C116.148,33.946 115.944,34.858 115.539,35.715 C115.135,36.573 114.557,37.284 113.815,37.857 C113.068,38.426 112.211,38.786 111.242,38.932 L115.828,44.745 L113.802,46.322 L107.292,38.372 L106.816,35.231 C107.167,35.706 107.634,36.079 108.212,36.35 C108.794,36.617 109.278,36.755 109.669,36.755 C110.905,36.755 111.86,36.408 112.531,35.724 C113.202,35.035 113.535,34.107 113.535,32.938 C113.535,32.253 113.371,31.622 113.037,31.045 C112.704,30.463 112.251,30.009 111.669,29.676 C111.091,29.343 110.46,29.178 109.771,29.178 C108.634,29.178 107.727,29.565 107.043,30.334 C106.358,31.102 106.016,32.169 106.016,33.524 L106.016,46.322 L103.457,46.322 Z M128.626,46.322 L128.626,39.363 L120.414,39.363 L120.414,46.322 L117.854,46.322 L117.854,34.271 C117.854,31.956 118.468,30.125 119.69,28.787 C120.916,27.45 122.525,26.779 124.52,26.779 C125.822,26.779 126.977,27.077 127.99,27.672 C128.999,28.272 129.786,29.139 130.346,30.276 C130.905,31.414 131.186,32.742 131.186,34.271 L131.186,46.322 L128.626,46.322 Z M124.524,29.152 C123.205,29.152 122.187,29.592 121.48,30.467 C120.769,31.343 120.414,32.631 120.414,34.329 L120.414,36.937 L128.626,36.937 L128.626,34.329 C128.626,32.631 128.27,31.343 127.56,30.467 C126.853,29.592 125.84,29.152 124.524,29.152 Z M134.358,46.322 L134.358,33.498 C134.358,32.133 134.612,30.943 135.118,29.925 C135.629,28.903 136.336,28.125 137.242,27.588 C138.149,27.05 139.184,26.779 140.353,26.779 C142.272,26.779 143.837,27.561 145.045,29.125 C145.419,28.628 145.854,28.201 146.352,27.845 C146.85,27.49 147.383,27.223 147.956,27.046 C148.529,26.868 149.125,26.779 149.738,26.779 C150.916,26.779 151.955,27.05 152.866,27.588 C153.773,28.125 154.48,28.898 154.982,29.912 C155.488,30.925 155.742,32.12 155.742,33.498 L155.742,46.322 L153.208,46.322 L153.208,33.502 C153.208,32.098 152.906,31.027 152.302,30.289 C151.702,29.547 150.844,29.178 149.738,29.178 C148.645,29.178 147.801,29.547 147.2,30.289 C146.601,31.027 146.303,32.098 146.303,33.502 L146.303,46.322 L143.797,46.322 L143.797,33.502 C143.797,32.098 143.494,31.027 142.895,30.289 C142.295,29.547 141.446,29.178 140.353,29.178 C139.251,29.178 138.402,29.547 137.811,30.289 C137.216,31.027 136.918,32.098 136.918,33.502 L136.918,46.322 L134.358,46.322 Z M159.185,46.322 L161.718,46.322 L161.718,27.125 L159.185,27.125 L159.185,46.322 Z M165.313,46.322 L165.313,27.125 L167.819,27.125 L167.819,35.066 L175.072,27.125 L178.569,27.125 L171.823,34.426 C172.196,34.306 172.49,34.244 172.703,34.244 C173.219,34.244 173.765,34.36 174.339,34.591 C174.916,34.818 175.445,35.151 175.929,35.586 C176.418,36.022 176.814,36.559 177.12,37.199 C177.427,37.844 177.578,38.564 177.578,39.363 L177.578,46.322 L175.018,46.322 L175.018,39.63 C175.018,39.132 174.872,38.63 174.578,38.124 C174.285,37.613 173.854,37.195 173.276,36.871 C172.703,36.542 172.023,36.377 171.237,36.377 C170.183,36.377 169.348,36.648 168.739,37.186 C168.126,37.728 167.819,38.559 167.819,39.684 L167.819,46.322 L165.313,46.322 Z M181.897,36.693 C181.897,37.653 182.084,38.59 182.452,39.501 C182.826,40.417 183.341,41.23 183.999,41.941 C184.661,42.656 185.425,43.216 186.292,43.629 C187.158,44.038 188.074,44.243 189.038,44.243 C190.025,44.243 190.953,44.038 191.829,43.629 C192.704,43.216 193.464,42.656 194.113,41.945 C194.762,41.234 195.268,40.426 195.624,39.515 C195.984,38.608 196.161,37.666 196.161,36.693 C196.161,35.733 195.979,34.795 195.619,33.884 C195.259,32.973 194.753,32.16 194.1,31.454 C193.446,30.743 192.691,30.187 191.824,29.783 C190.962,29.378 190.034,29.178 189.038,29.178 C187.745,29.178 186.554,29.525 185.457,30.218 C184.363,30.911 183.497,31.84 182.857,33 C182.217,34.16 181.897,35.391 181.897,36.693 Z M179.284,36.719 C179.284,34.991 179.733,33.36 180.626,31.831 C181.52,30.303 182.719,29.085 184.221,28.174 C185.728,27.263 187.332,26.805 189.043,26.805 C190.371,26.805 191.629,27.063 192.811,27.583 C193.997,28.103 195.037,28.823 195.935,29.752 C196.828,30.676 197.526,31.742 198.028,32.938 C198.525,34.138 198.774,35.395 198.774,36.719 C198.774,38.044 198.525,39.306 198.028,40.506 C197.526,41.701 196.833,42.763 195.944,43.692 C195.055,44.616 194.011,45.345 192.82,45.873 C191.629,46.402 190.371,46.669 189.043,46.669 C187.75,46.669 186.51,46.411 185.323,45.896 C184.141,45.376 183.092,44.656 182.177,43.723 C181.266,42.794 180.555,41.723 180.044,40.523 C179.538,39.319 179.284,38.052 179.284,36.719 Z M203.791,46.322 L201.232,46.322 L201.232,34.244 C201.232,31.942 201.845,30.121 203.067,28.783 C204.293,27.445 205.902,26.779 207.897,26.779 C209.199,26.779 210.355,27.077 211.363,27.672 C212.372,28.268 213.159,29.13 213.719,30.263 C214.283,31.396 214.563,32.724 214.563,34.244 L214.563,46.322 L212.003,46.322 L212.003,34.378 C212.003,32.684 211.648,31.396 210.937,30.52 C210.23,29.645 209.217,29.205 207.902,29.205 C206.582,29.205 205.564,29.645 204.858,30.52 C204.147,31.396 203.791,32.684 203.791,34.378 L203.791,46.322 L203.791,46.322 Z" id="Fill-80"></path>
                    <polygon id="Fill-81" points="85.35 46.322 87.883 46.322 87.883 26.737 85.35 26.737"></polygon>
                    <path d="M92.125,44.187 L92.169,44.188 C93.156,44.188 94.085,43.983 94.96,43.574 C95.836,43.161 96.596,42.601 97.244,41.89 C97.893,41.179 98.399,40.37 98.755,39.46 C99.115,38.553 99.293,37.611 99.293,36.638 C99.293,35.678 99.111,34.74 98.751,33.829 C98.391,32.918 97.884,32.105 97.231,31.399 C96.578,30.687 95.822,30.132 94.956,29.728 C94.094,29.323 93.165,29.123 92.169,29.123 L92.125,29.124 L92.125,26.751 L92.174,26.75 C93.503,26.75 94.76,27.008 95.942,27.528 C97.129,28.048 98.168,28.768 99.066,29.697 C99.959,30.621 100.657,31.688 101.159,32.883 C101.657,34.082 101.906,35.34 101.906,36.664 C101.906,37.989 101.657,39.251 101.159,40.451 C100.657,41.646 99.964,42.708 99.075,43.636 C98.186,44.561 97.142,45.29 95.951,45.818 C94.76,46.347 93.503,46.614 92.174,46.614 L92.125,46.614 L92.125,44.187" id="Fill-82"></path>
                    <polygon id="Fill-83" points="85.35 29.125 92.318 29.125 92.318 26.737 85.35 26.737"></polygon>
                    <polygon id="Fill-84" points="85.35 46.613 92.211 46.613 92.211 44.186 85.35 44.186"></polygon>
                </g>
            </g>
        </g>
    </g>
</svg>